<?xml version="1.0" standalone="no"?>
<!DOCTYPE svg PUBLIC "-//W3C//DTD SVG 1.1//EN" "http://www.w3.org/Graphics/SVG/1.1/DTD/svg11.dtd">
<svg xmlns="http://www.w3.org/2000/svg" xmlns:xlink="http://www.w3.org/1999/xlink" width="461" height="83" viewBox="0 0 461 83">
  <defs>
    <clipPath id="clip-path">
      <rect id="長方形_24562" data-name="長方形 24562" width="461" height="83" transform="translate(0 0.002)" fill="none"/>
    </clipPath>
    <clipPath id="clip-path-2">
      <path id="パス_18730" data-name="パス 18730" d="M35.809,0C23.842,3.148,11.272,15.669,4.526,32.581-4.3,54.713.181,75.956,14.549,80.047c11.719,3.334,26.392-5.788,36.2-21.273C42.261,68.353,31.74,73.394,23,70.912,9.763,67.147,5.63,47.574,13.764,27.2,18.708,14.793,27.053,4.968,35.809,0Z" transform="translate(0)" fill="none"/>
    </clipPath>
    <radialGradient id="radial-gradient" cx="0.579" cy="0.469" r="0.469" gradientUnits="objectBoundingBox">
      <stop offset="0" stop-color="#fff"/>
      <stop offset="0.006" stop-color="#fff"/>
      <stop offset="0.5" stop-color="#a50005"/>
      <stop offset="1" stop-color="#dc000c"/>
    </radialGradient>
    <clipPath id="clip-path-3">
      <path id="パス_18731" data-name="パス 18731" d="M16.029,33.327c-1.05,14.9,5.74,27.366,15.159,27.851,7.689.4,14.75-7.3,17.662-18.239-3.254,7.109-8.61,11.706-14.342,11.408C25.828,53.9,19.581,42.418,20.542,28.7c.59-8.35,3.714-15.589,8.02-19.889C21.979,12.446,16.83,21.94,16.029,33.327" transform="translate(-15.921 -8.811)" fill="none"/>
    </clipPath>
    <radialGradient id="radial-gradient-2" cx="0.44" cy="0.471" r="0.951" xlink:href="#radial-gradient"/>
    <clipPath id="clip-path-4">
      <path id="パス_18732" data-name="パス 18732" d="M26.2,16.959a19.555,19.555,0,0,1,10.88.334c14.44,4.944,18.285,27.774,8.588,51A75.019,75.019,0,0,1,39.391,80.2a65.548,65.548,0,0,0,11.69-18.688c8.935-21.394,5.394-42.419-7.9-46.97a16.491,16.491,0,0,0-5.378-.876,24.52,24.52,0,0,0-11.6,3.288" transform="translate(-26.199 -13.671)" fill="none"/>
    </clipPath>
    <radialGradient id="radial-gradient-3" cx="0.163" cy="0.326" r="0.724" xlink:href="#radial-gradient"/>
    <clipPath id="clip-path-5">
      <path id="パス_18733" data-name="パス 18733" d="M23.738,33.343c0,6.658,4.388,12.048,9.8,12.048S43.345,40,43.345,33.343s-4.39-12.061-9.807-12.061-9.8,5.4-9.8,12.061" transform="translate(-23.738 -21.282)" fill="none"/>
    </clipPath>
    <radialGradient id="radial-gradient-4" cx="0.401" cy="0.286" r="1.424" xlink:href="#radial-gradient"/>
  </defs>
  <g id="footer-logo" transform="translate(0 0.058)">
    <path id="パス_18719" data-name="パス 18719" d="M84.674,23.891h-6.51V52.73h-4.29V23.891h-6.5V20.754h17.3Z" transform="translate(13.756 4.21)" fill="#a50005"/>
    <path id="パス_18720" data-name="パス 18720" d="M102.83,20.754V52.729h-4.3V38.5H88.875V52.729h-4.29V20.754h4.29V34.992h9.656V20.754Z" transform="translate(17.269 4.21)" fill="#a50005"/>
    <g id="グループ_10998" data-name="グループ 10998" transform="translate(0 -0.06)">
      <g id="グループ_10997" data-name="グループ 10997" clip-path="url(#clip-path)">
        <path id="パス_18721" data-name="パス 18721" d="M118.494,52.623,113.038,39c-.358.1-.706.217-1.007.321s-.565.178-.8.245l-.762.227a3.922,3.922,0,0,0-1.157.433,3.3,3.3,0,0,0-.829.677,1.558,1.558,0,0,0-.376,1.084V52.623h-4.272V20.754h4.272l.01,16.046c.3-.1.7-.207,1.128-.339.461-.133.932-.283,1.412-.434.5-.159,1-.329,1.487-.48q.761-.24,1.355-.424l1.213-.348a2.619,2.619,0,0,0,1.638-1.111,2.732,2.732,0,0,0,.376-1.261V20.754H121V33.061a4.619,4.619,0,0,1-.884,2.675,5.916,5.916,0,0,1-3.04,2.027l5.975,14.86Z" transform="translate(21.22 4.322)" fill="#a50005"/>
        <path id="パス_18722" data-name="パス 18722" d="M149.527,38.068V52.636h-4.279V37.463a2.529,2.529,0,0,0-.348-1.392,3.241,3.241,0,0,0-.809-.894,3.97,3.97,0,0,0-1.2-.669c-.537-.181-1.11-.35-1.713-.528-.508-.142-1.044-.3-1.619-.48s-1.12-.34-1.656-.5a2.764,2.764,0,0,1-.762-.3.963.963,0,0,1-.5-.7V52.636h-4.272V20.691h4.272V27.16a1.753,1.753,0,0,0,.226.925,3.38,3.38,0,0,0,.517.705,2.234,2.234,0,0,0,.641.452,4.493,4.493,0,0,0,.526.245c.132.039.471.141,1.007.311s1.157.376,1.863.6c.706.207,1.449.442,2.249.677.782.235,1.478.434,2.08.614a5.248,5.248,0,0,1,2.793,1.938,5.03,5.03,0,0,1,.988,3.044Z" transform="translate(27.051 4.309)" fill="#a50005"/>
        <path id="パス_18723" data-name="パス 18723" d="M167.936,45.489v.705a6.358,6.358,0,0,1-.207,1.413,3.805,3.805,0,0,1-1.063,1.761,6.948,6.948,0,0,1-2.569,1.516,17.918,17.918,0,0,1-9.493,0,7.093,7.093,0,0,1-2.569-1.516,3.851,3.851,0,0,1-1.073-1.789,7.143,7.143,0,0,1-.207-1.385V33.169a7.246,7.246,0,0,1,.207-1.385A3.825,3.825,0,0,1,152.035,30a6.976,6.976,0,0,1,2.569-1.516,17.918,17.918,0,0,1,9.493,0A6.835,6.835,0,0,1,166.666,30a3.719,3.719,0,0,1,1.063,1.761,6.287,6.287,0,0,1,.207,1.4Zm-4.272-.424V33.818a3.116,3.116,0,0,0-.151-.867,2.037,2.037,0,0,0-.639-.857,4.1,4.1,0,0,0-1.337-.677,7.5,7.5,0,0,0-2.315-.292,6.947,6.947,0,0,0-2.192.292,3.605,3.605,0,0,0-1.279.706,1.853,1.853,0,0,0-.584.9,3.471,3.471,0,0,0-.131.847V45.507a3.47,3.47,0,0,0,.131.838,1.943,1.943,0,0,0,.584.9,3.462,3.462,0,0,0,1.279.706,6.675,6.675,0,0,0,2.192.293,7.209,7.209,0,0,0,2.315-.293,4.1,4.1,0,0,0,1.337-.687,1.981,1.981,0,0,0,.639-.857,3.059,3.059,0,0,0,.151-.867Z" transform="translate(30.809 5.779)" fill="#a50005"/>
        <rect id="長方形_24561" data-name="長方形 24561" width="4.272" height="31.869" transform="translate(205.021 25.076)" fill="#a50005"/>
        <path id="パス_18724" data-name="パス 18724" d="M195.086,47.672a4.724,4.724,0,0,1-2.116,3.795q-2.076,1.512-6.473,1.516a16.175,16.175,0,0,1-3.914-.424,8.182,8.182,0,0,1-2.71-1.139,4.34,4.34,0,0,1-2.023-3.748V46.607h.066v-8.9h-.066V36.688a5.011,5.011,0,0,1,.988-3.023,5.315,5.315,0,0,1,2.86-1.939c.6-.178,1.308-.368,2.08-.612s1.515-.462,2.221-.677,1.336-.424,1.881-.585c.536-.188.876-.292,1.007-.319.141-.057.32-.133.526-.236a2.583,2.583,0,0,0,.65-.46,3.665,3.665,0,0,0,.526-.706,1.815,1.815,0,0,0,.226-.923V20.754h4.271Zm-8.562,2.033a7.671,7.671,0,0,0,2.1-.245,3.6,3.6,0,0,0,1.318-.65,2.211,2.211,0,0,0,.668-.876,2.249,2.249,0,0,0,.207-.914V37.47l-.029-5.453a.963.963,0,0,1-.479.706,3,3,0,0,1-.772.3c-.5.151-1.044.3-1.637.481s-1.13.339-1.628.489c-.6.178-1.175.348-1.713.527a3.891,3.891,0,0,0-1.157.659,3.833,3.833,0,0,0-.827.9,2.337,2.337,0,0,0-.377,1.385v9.315a3.7,3.7,0,0,0,.273,1.111,2.378,2.378,0,0,0,.715.914,3.428,3.428,0,0,0,1.3.65,7.47,7.47,0,0,0,2.041.245" transform="translate(36.346 4.322)" fill="#a50005"/>
        <path id="パス_18725" data-name="パス 18725" d="M201.059,25.171h-4.272V20.754h4.272Zm-4.272,4.493h4.272V52.625h-4.272Z" transform="translate(40.216 4.322)" fill="#a50005"/>
        <path id="パス_18726" data-name="パス 18726" d="M221.7,51.167h-4.272V33.856A2.884,2.884,0,0,0,217.3,33a1.876,1.876,0,0,0-.584-.886,3.8,3.8,0,0,0-1.3-.7,7.044,7.044,0,0,0-2.2-.292,7.831,7.831,0,0,0-2.324.292,4.162,4.162,0,0,0-1.363.679,1.968,1.968,0,0,0-.641.857,2.659,2.659,0,0,0-.151.818v17.4h-4.272V33.177a6.721,6.721,0,0,1,.2-1.413A3.732,3.732,0,0,1,205.756,30a7.3,7.3,0,0,1,2.6-1.515,17.957,17.957,0,0,1,9.512,0A6.974,6.974,0,0,1,220.433,30a3.655,3.655,0,0,1,1.063,1.78,6.531,6.531,0,0,1,.207,1.393V51.167Z" transform="translate(41.785 5.779)" fill="#a50005"/>
        <path id="パス_18727" data-name="パス 18727" d="M232.022,27.848a13.794,13.794,0,0,1,4.752.65,6.805,6.805,0,0,1,2.577,1.516,3.654,3.654,0,0,1,1.054,1.779,5.96,5.96,0,0,1,.207,1.393v2.1a5.744,5.744,0,0,1-.3,1.707,4.546,4.546,0,0,1-1.515,1.967,4.333,4.333,0,0,1-1.289.792,8.866,8.866,0,0,1-1.242.4,4.986,4.986,0,0,1-1.355.178h-3.867a3.569,3.569,0,0,0-2.315.8,2.5,2.5,0,0,0-1.007,2.091v.932a1.425,1.425,0,0,0,.226.82,1.714,1.714,0,0,0,.554.517,3.058,3.058,0,0,0,.65.311,3.713,3.713,0,0,1,.479.2c.131.039.471.133,1.007.293s1.157.348,1.873.574c.7.217,1.439.442,2.239.669.78.245,1.486.442,2.088.621a5.324,5.324,0,0,1,2.8,1.941,5.073,5.073,0,0,1,.978,3.032v2.062a5.2,5.2,0,0,1-.329,1.733A3.979,3.979,0,0,1,239,58.653a7.8,7.8,0,0,1-2.634,1.328,18.408,18.408,0,0,1-8.675,0,7.718,7.718,0,0,1-2.635-1.328,3.9,3.9,0,0,1-1.279-1.732,5.227,5.227,0,0,1-.33-1.751V33.178a6.529,6.529,0,0,1,.207-1.395A3.632,3.632,0,0,1,224.712,30a6.963,6.963,0,0,1,2.579-1.516,14.007,14.007,0,0,1,4.732-.64m4.319,6.074a3.324,3.324,0,0,0-.122-.867,2.056,2.056,0,0,0-.565-.9,2.938,2.938,0,0,0-1.251-.734,7.121,7.121,0,0,0-2.249-.293,7.671,7.671,0,0,0-2.3.293,4.122,4.122,0,0,0-1.355.677,1.948,1.948,0,0,0-.63.876,2.621,2.621,0,0,0-.151.865v4.589a1.025,1.025,0,0,1,.452-.63,2.721,2.721,0,0,1,.837-.377,3.6,3.6,0,0,1,.923-.178c.311-.029.526-.047.659-.047h2.935a2.948,2.948,0,0,0,1.986-.726,2.346,2.346,0,0,0,.827-1.8v-.744Zm-7.357,15.559a3.087,3.087,0,0,1-.753-.3.994.994,0,0,1-.508-.669v5.416a3.208,3.208,0,0,0,.9,2.439,5.128,5.128,0,0,0,3.425.857,5.187,5.187,0,0,0,3.387-.81,3.164,3.164,0,0,0,.9-2.486,2.46,2.46,0,0,0-.348-1.375,3.885,3.885,0,0,0-.809-.923,5.428,5.428,0,0,0-1.213-.612c-.537-.169-1.11-.348-1.713-.517-.508-.141-1.045-.311-1.619-.509s-1.12-.358-1.656-.509" transform="translate(45.665 5.779)" fill="#a50005"/>
        <path id="パス_18728" data-name="パス 18728" d="M253.584,32.029c-.593-.6-1.722-.9-3.4-.9a7.669,7.669,0,0,0-2.1.246,3.638,3.638,0,0,0-1.336.648,2.146,2.146,0,0,0-.706.858,2.205,2.205,0,0,0-.2.894v.839a1.828,1.828,0,0,0,.226.921,2.975,2.975,0,0,0,.526.7,1.936,1.936,0,0,0,.63.475c.217.093.4.187.537.235.122.037.461.141,1,.319s1.167.376,1.891.593,1.468.444,2.24.669c.771.245,1.458.452,2.061.63a5.337,5.337,0,0,1,2.8,1.931,5.123,5.123,0,0,1,.978,3.041v2.062a5.359,5.359,0,0,1-.329,1.733,3.931,3.931,0,0,1-1.29,1.751A7.677,7.677,0,0,1,254.5,51a18.081,18.081,0,0,1-8.675,0,7.915,7.915,0,0,1-2.635-1.327,4.057,4.057,0,0,1-1.279-1.751,5.415,5.415,0,0,1-.34-1.743v-1.29h4.282a3.292,3.292,0,0,0,.9,2.487c.6.583,1.75.875,3.435.875a5.072,5.072,0,0,0,3.367-.828,3.293,3.293,0,0,0,.913-2.534,2.483,2.483,0,0,0-.358-1.375,3.8,3.8,0,0,0-.808-.9,4.432,4.432,0,0,0-1.2-.611c-1.026-.33-1.967-.612-2.833-.886-.78-.225-1.533-.452-2.258-.668s-1.251-.377-1.59-.471a6.576,6.576,0,0,1-1.157-.528,5.732,5.732,0,0,1-1.271-.922,4.592,4.592,0,0,1-1.007-1.385,4.049,4.049,0,0,1-.414-1.865V33.158a4.578,4.578,0,0,1,2.07-3.795q2.076-1.51,6.52-1.516a16.379,16.379,0,0,1,3.877.405,8.947,8.947,0,0,1,2.681,1.15,4.509,4.509,0,0,1,1.544,1.685,4.561,4.561,0,0,1,.479,2.062v1.045h-4.272a2.982,2.982,0,0,0-.884-2.166" transform="translate(49.368 5.779)" fill="#a50005"/>
      </g>
    </g>
    <g id="グループ_11000" data-name="グループ 11000" transform="translate(0 -0.001)">
      <g id="グループ_10999" data-name="グループ 10999" clip-path="url(#clip-path-2)">
        <path id="パス_18729" data-name="パス 18729" d="M-21.061,7.6,51.608-10.85,76.323,80.234,3.654,98.686Z" transform="translate(-4.41 -2.227)" fill="url(#radial-gradient)"/>
      </g>
    </g>
    <g id="グループ_11002" data-name="グループ 11002" transform="translate(19.256 10.655)">
      <g id="グループ_11001" data-name="グループ 11001" clip-path="url(#clip-path-3)">
        <rect id="長方形_24563" data-name="長方形 24563" width="37.575" height="55.067" transform="translate(-4.728 0.273) rotate(-4.127)" fill="url(#radial-gradient-2)"/>
      </g>
    </g>
    <g id="グループ_11004" data-name="グループ 11004" transform="translate(31.685 16.258)">
      <g id="グループ_11003" data-name="グループ 11003" clip-path="url(#clip-path-4)">
        <rect id="長方形_24564" data-name="長方形 24564" width="47.585" height="72.327" transform="translate(-14.232 3.197) rotate(-12.661)" fill="url(#radial-gradient-3)"/>
      </g>
    </g>
    <g id="グループ_11006" data-name="グループ 11006" transform="translate(28.709 25.618)">
      <g id="グループ_11005" data-name="グループ 11005" clip-path="url(#clip-path-5)">
        <rect id="長方形_24565" data-name="長方形 24565" width="19.607" height="24.109" transform="translate(0 0)" fill="url(#radial-gradient-4)"/>
      </g>
    </g>
    <g id="グループ_11008" data-name="グループ 11008" transform="translate(0 -0.06)">
      <g id="グループ_11007" data-name="グループ 11007" clip-path="url(#clip-path)">
        <path id="パス_18734" data-name="パス 18734" d="M285.033,48.267V49.7a5.221,5.221,0,0,1-.1,1.063,2.678,2.678,0,0,1-.334.846,3.669,3.669,0,0,1-.668.782,4.432,4.432,0,0,1-2.193,1.04,5.086,5.086,0,0,1-2.48-.086q-1.194-.347-2.6-.8t-2.647-.846q-.334-.087-.931-.283t-.691-.239a12.449,12.449,0,0,1-1.191-.433,4.121,4.121,0,0,1-1.17-.759,3.6,3.6,0,0,1-.883-1.3,5.565,5.565,0,0,1-.334-2.1V21.1h4.006V45.274a.431.431,0,0,1,.048.216,2.6,2.6,0,0,0,.382,1.454,3.222,3.222,0,0,0,1,.978,5.486,5.486,0,0,0,1.334.608c.478.145.922.289,1.337.433a18.3,18.3,0,0,0,2.24.565,2.336,2.336,0,0,0,1.216-.043.829.829,0,0,0,.5-.63,6.1,6.1,0,0,0,.1-1.193V43.884h.048V21.1h4.006V48.267Z" transform="translate(54.936 4.394)" fill="#a50005"/>
        <path id="パス_18735" data-name="パス 18735" d="M291.456,25.521H287.45V21.137h4.006ZM287.45,29.9h4.006V52.556H287.45Z" transform="translate(58.744 4.401)" fill="#a50005"/>
        <path id="パス_18736" data-name="パス 18736" d="M303.682,28.122a12.771,12.771,0,0,1,4.483.63,6.494,6.494,0,0,1,2.433,1.5,3.781,3.781,0,0,1,1,1.757,7.032,7.032,0,0,1,.191,1.368v2.082a5.165,5.165,0,0,1-.311,1.649,5,5,0,0,1-1.455,1.953,3.463,3.463,0,0,1-1.191.781,9.957,9.957,0,0,1-1.192.391,4.716,4.716,0,0,1-1.288.175h-3.625a3.25,3.25,0,0,0-2.193.823,2.589,2.589,0,0,0-.954,2.041v1.952a2.806,2.806,0,0,0,.429,1.649,2.435,2.435,0,0,0,.429.522,2.15,2.15,0,0,0,.715.389,5.024,5.024,0,0,0,.978.3,7.592,7.592,0,0,0,1.55.129,6.368,6.368,0,0,0,1.956-.239,5.318,5.318,0,0,0,1-.412,2.287,2.287,0,0,0,.859-1.041,3.521,3.521,0,0,0,.238-1.3h4.054v1.041a4.427,4.427,0,0,1-.549,2.17,4.882,4.882,0,0,1-1.692,1.736,8.217,8.217,0,0,1-2.241.911,14.067,14.067,0,0,1-3.625.391,14.488,14.488,0,0,1-2.813-.239,11,11,0,0,1-2.075-.608,5.606,5.606,0,0,1-1.455-.846,6.722,6.722,0,0,1-.954-.955,3.956,3.956,0,0,1-.811-2.6V33.374a6.737,6.737,0,0,1,.191-1.39,3.759,3.759,0,0,1,1-1.736,6.5,6.5,0,0,1,2.432-1.5,12.783,12.783,0,0,1,4.484-.63m4.054,6.336v-.391a3.345,3.345,0,0,0-.119-.845,1.876,1.876,0,0,0-.549-.869,3.4,3.4,0,0,0-1.215-.694,6.29,6.29,0,0,0-2.075-.282,6.925,6.925,0,0,0-2.17.282,3.91,3.91,0,0,0-1.287.673,1.884,1.884,0,0,0-.6.846,2.732,2.732,0,0,0-.142.8v4.514a1.05,1.05,0,0,1,.429-.63,2.551,2.551,0,0,1,.763-.368,4.4,4.4,0,0,1,.858-.175c.287-.028.509-.043.667-.043h2.719a2.784,2.784,0,0,0,1.908-.716,2.211,2.211,0,0,0,.811-1.714v-.391Z" transform="translate(60.404 5.835)" fill="#a50005"/>
        <path id="パス_18737" data-name="パス 18737" d="M322.851,48.85V52.1a12.775,12.775,0,0,1-4.483-.629,6.743,6.743,0,0,1-2.457-1.5,3.7,3.7,0,0,1-1.025-1.757,7.029,7.029,0,0,1-.19-1.368V32.186h-3.053V29.105H314.7V23.334h4.054v5.771h4.1v3.081h-4.1v13.93a3.415,3.415,0,0,0,.118.847,2.008,2.008,0,0,0,.549.888,3.234,3.234,0,0,0,1.216.717,6.294,6.294,0,0,0,2.075.281Z" transform="translate(63.688 4.852)" fill="#a50005"/>
        <path id="パス_18738" data-name="パス 18738" d="M340.644,51.121H336.59V34.067a3.355,3.355,0,0,0-.119-.846,1.884,1.884,0,0,0-.549-.868,3.4,3.4,0,0,0-1.216-.694,6.277,6.277,0,0,0-2.074-.282,6.919,6.919,0,0,0-2.17.282,3.888,3.888,0,0,0-1.288.673,1.889,1.889,0,0,0-.6.846,2.731,2.731,0,0,0-.142.8V51.121H324.38V33.373a6.873,6.873,0,0,1,.19-1.389,3.724,3.724,0,0,1,1.026-1.736,6.755,6.755,0,0,1,2.456-1.5,16.287,16.287,0,0,1,8.967,0,6.51,6.51,0,0,1,2.433,1.5,3.785,3.785,0,0,1,1,1.757,7.128,7.128,0,0,1,.192,1.367V51.121Z" transform="translate(66.291 5.835)" fill="#a50005"/>
        <path id="パス_18739" data-name="パス 18739" d="M349.586,28.122q4.195,0,6.152,1.5a4.554,4.554,0,0,1,1.955,3.754V46.217a5.49,5.49,0,0,1-.31,1.714,3.924,3.924,0,0,1-1.215,1.714,7.281,7.281,0,0,1-2.481,1.3,16.417,16.417,0,0,1-8.2,0,7.257,7.257,0,0,1-2.479-1.3,3.9,3.9,0,0,1-1.216-1.714,5.429,5.429,0,0,1-.311-1.714v-2.04a5.145,5.145,0,0,1,.931-2.994,5,5,0,0,1,2.646-1.909q.86-.26,1.956-.608t2.122-.673q1.024-.325,1.788-.586c.508-.172.827-.274.954-.3.128-.058.294-.136.5-.239a2.114,2.114,0,0,0,.6-.456,3.359,3.359,0,0,0,.5-.694,1.86,1.86,0,0,0,.216-.911V33.98a2.33,2.33,0,0,0-.19-.89,2.238,2.238,0,0,0-.668-.846,3.66,3.66,0,0,0-1.265-.629,6.968,6.968,0,0,0-1.978-.239q-2.388,0-3.22.89a3.028,3.028,0,0,0-.833,2.148h-4.055V33.373a4.7,4.7,0,0,1,.453-2.04,4.381,4.381,0,0,1,1.455-1.671,7.835,7.835,0,0,1,2.528-1.128,14.239,14.239,0,0,1,3.673-.412m4.1,11.5a.96.96,0,0,1-.477.651,3,3,0,0,1-.715.3q-.716.217-1.55.5t-1.55.5q-.858.26-1.621.521a4.523,4.523,0,0,0-1.1.608,3.889,3.889,0,0,0-.788.89,2.439,2.439,0,0,0-.357,1.367,3.2,3.2,0,0,0,.858,2.452,4.752,4.752,0,0,0,3.2.8,4.659,4.659,0,0,0,3.242-.846,3.227,3.227,0,0,0,.859-2.408Z" transform="translate(69.785 5.835)" fill="#a50005"/>
        <path id="パス_18740" data-name="パス 18740" d="M387.449,51.121H383.4V34.067a3.357,3.357,0,0,0-.119-.846,1.965,1.965,0,0,0-.524-.868,3.16,3.16,0,0,0-1.194-.694,6.461,6.461,0,0,0-2.121-.282,6.909,6.909,0,0,0-2.17.282,3.865,3.865,0,0,0-1.288.673,1.871,1.871,0,0,0-.6.846,2.737,2.737,0,0,0-.143.8V51.121h-4.054V34.067a3.356,3.356,0,0,0-.119-.846,1.954,1.954,0,0,0-.524-.868,3.163,3.163,0,0,0-1.192-.694,6.474,6.474,0,0,0-2.122-.282,6.92,6.92,0,0,0-2.17.282,3.864,3.864,0,0,0-1.287.673,1.868,1.868,0,0,0-.6.846,2.734,2.734,0,0,0-.143.8V51.121h-4.007V33.373a6.8,6.8,0,0,1,.192-1.389,3.772,3.772,0,0,1,1-1.736,6.493,6.493,0,0,1,2.432-1.5,12.816,12.816,0,0,1,4.484-.629,14.067,14.067,0,0,1,3.743.412,8.335,8.335,0,0,1,2.36,1.02,8.32,8.32,0,0,1,2.361-1.02,14.075,14.075,0,0,1,3.744-.412,12.8,12.8,0,0,1,4.483.629,6.509,6.509,0,0,1,2.433,1.5,3.788,3.788,0,0,1,1,1.757,7.109,7.109,0,0,1,.19,1.367V51.121Z" transform="translate(73.371 5.835)" fill="#a50005"/>
      </g>
    </g>
  </g>
</svg>